<?xml version="1.0" encoding="UTF-8" standalone="no"?>
<svg
   xmlns:dc="http://purl.org/dc/elements/1.1/"
   xmlns:cc="http://creativecommons.org/ns#"
   xmlns:rdf="http://www.w3.org/1999/02/22-rdf-syntax-ns#"
   xmlns:svg="http://www.w3.org/2000/svg"
   xmlns="http://www.w3.org/2000/svg"
   xmlns:sodipodi="http://sodipodi.sourceforge.net/DTD/sodipodi-0.dtd"
   xmlns:inkscape="http://www.inkscape.org/namespaces/inkscape"
   inkscape:export-ydpi="212.5238"
   inkscape:export-xdpi="212.5238"
   inkscape:export-filename="/home/charleshoward/git/FlightHud/images/hud-diagram.png"
   sodipodi:docname="hud.svg"
   inkscape:version="1.0 (6e3e5246a0, 2020-05-07)"
   id="svg8"
   version="1.1"
   viewBox="0 0 128 128"
   height="128mm"
   width="128mm">
  <defs
     id="defs2">
    <marker
       inkscape:isstock="true"
       style="overflow:visible;"
       id="Arrow2Lend"
       refX="0.0"
       refY="0.0"
       orient="auto"
       inkscape:stockid="Arrow2Lend">
      <path
         transform="scale(1.1) rotate(180) translate(1,0)"
         d="M 8.7185878,4.0337352 L -2.2072895,0.016013256 L 8.7185884,-4.0017078 C 6.9730900,-1.6296469 6.9831476,1.6157441 8.7185878,4.0337352 z "
         style="fill-rule:evenodd;stroke-width:0.625;stroke-linejoin:round;stroke:#0000ff;stroke-opacity:1;fill:#0000ff;fill-opacity:1"
         id="path1082" />
    </marker>
    <marker
       inkscape:isstock="true"
       style="overflow:visible;"
       id="Arrow1Lend"
       refX="0.0"
       refY="0.0"
       orient="auto"
       inkscape:stockid="Arrow1Lend">
      <path
         transform="scale(0.8) rotate(180) translate(12.5,0)"
         style="fill-rule:evenodd;stroke:#000000;stroke-width:1pt;stroke-opacity:1;fill:#000000;fill-opacity:1"
         d="M 0.0,0.0 L 5.0,-5.0 L -12.5,0.0 L 5.0,5.0 L 0.0,0.0 z "
         id="path1064" />
    </marker>
    <marker
       inkscape:stockid="Arrow2Lend"
       orient="auto"
       refY="0"
       refX="0"
       id="Arrow2Lend-3"
       style="overflow:visible"
       inkscape:isstock="true">
      <path
         id="path1082-6"
         style="fill:#0000ff;fill-opacity:1;fill-rule:evenodd;stroke:#0000ff;stroke-width:0.625;stroke-linejoin:round;stroke-opacity:1"
         d="M 8.7185878,4.0337352 -2.2072895,0.01601326 8.7185884,-4.0017078 c -1.7454984,2.3720609 -1.7354408,5.6174519 -6e-7,8.035443 z"
         transform="matrix(-1.1,0,0,-1.1,-1.1,0)" />
    </marker>
    <marker
       inkscape:isstock="true"
       style="overflow:visible"
       id="Arrow2Lend-3-6"
       refX="0"
       refY="0"
       orient="auto"
       inkscape:stockid="Arrow2Lend">
      <path
         transform="matrix(-1.1,0,0,-1.1,-1.1,0)"
         d="M 8.7185878,4.0337352 -2.2072895,0.01601326 8.7185884,-4.0017078 c -1.7454984,2.3720609 -1.7354408,5.6174519 -6e-7,8.035443 z"
         style="fill:#0000ff;fill-opacity:1;fill-rule:evenodd;stroke:#0000ff;stroke-width:0.625;stroke-linejoin:round;stroke-opacity:1"
         id="path1082-6-0" />
    </marker>
    <marker
       inkscape:isstock="true"
       style="overflow:visible"
       id="Arrow2Lend-3-2"
       refX="0"
       refY="0"
       orient="auto"
       inkscape:stockid="Arrow2Lend">
      <path
         transform="matrix(-1.1,0,0,-1.1,-1.1,0)"
         d="M 8.7185878,4.0337352 -2.2072895,0.01601326 8.7185884,-4.0017078 c -1.7454984,2.3720609 -1.7354408,5.6174519 -6e-7,8.035443 z"
         style="fill:#0000ff;fill-opacity:1;fill-rule:evenodd;stroke:#0000ff;stroke-width:0.625;stroke-linejoin:round;stroke-opacity:1"
         id="path1082-6-6" />
    </marker>
    <marker
       inkscape:isstock="true"
       style="overflow:visible"
       id="Arrow2Lend-3-8"
       refX="0"
       refY="0"
       orient="auto"
       inkscape:stockid="Arrow2Lend">
      <path
         transform="matrix(-1.1,0,0,-1.1,-1.1,0)"
         d="M 8.7185878,4.0337352 -2.2072895,0.01601326 8.7185884,-4.0017078 c -1.7454984,2.3720609 -1.7354408,5.6174519 -6e-7,8.035443 z"
         style="fill:#0000ff;fill-opacity:1;fill-rule:evenodd;stroke:#0000ff;stroke-width:0.625;stroke-linejoin:round;stroke-opacity:1"
         id="path1082-6-7" />
    </marker>
    <marker
       inkscape:isstock="true"
       style="overflow:visible"
       id="Arrow2Lend-3-20"
       refX="0"
       refY="0"
       orient="auto"
       inkscape:stockid="Arrow2Lend">
      <path
         transform="matrix(-1.1,0,0,-1.1,-1.1,0)"
         d="M 8.7185878,4.0337352 -2.2072895,0.01601326 8.7185884,-4.0017078 c -1.7454984,2.3720609 -1.7354408,5.6174519 -6e-7,8.035443 z"
         style="fill:#0000ff;fill-opacity:1;fill-rule:evenodd;stroke:#0000ff;stroke-width:0.625;stroke-linejoin:round;stroke-opacity:1"
         id="path1082-6-2" />
    </marker>
    <marker
       inkscape:isstock="true"
       style="overflow:visible"
       id="Arrow2Lend-3-7"
       refX="0"
       refY="0"
       orient="auto"
       inkscape:stockid="Arrow2Lend">
      <path
         transform="matrix(-1.1,0,0,-1.1,-1.1,0)"
         d="M 8.7185878,4.0337352 -2.2072895,0.01601326 8.7185884,-4.0017078 c -1.7454984,2.3720609 -1.7354408,5.6174519 -6e-7,8.035443 z"
         style="fill:#0000ff;fill-opacity:1;fill-rule:evenodd;stroke:#0000ff;stroke-width:0.625;stroke-linejoin:round;stroke-opacity:1"
         id="path1082-6-5" />
    </marker>
    <marker
       inkscape:stockid="Arrow2Lend"
       orient="auto"
       refY="0"
       refX="0"
       id="Arrow2Lend-2"
       style="overflow:visible"
       inkscape:isstock="true">
      <path
         id="path1082-8"
         style="fill:#0000ff;fill-opacity:1;fill-rule:evenodd;stroke:#0000ff;stroke-width:0.625;stroke-linejoin:round;stroke-opacity:1"
         d="M 8.7185878,4.0337352 -2.2072895,0.01601326 8.7185884,-4.0017078 c -1.7454984,2.3720609 -1.7354408,5.6174519 -6e-7,8.035443 z"
         transform="matrix(-1.1,0,0,-1.1,-1.1,0)" />
    </marker>
    <marker
       inkscape:stockid="Arrow2Lend"
       orient="auto"
       refY="0"
       refX="0"
       id="Arrow2Lend-7"
       style="overflow:visible"
       inkscape:isstock="true">
      <path
         id="path1082-3"
         style="fill:#0000ff;fill-opacity:1;fill-rule:evenodd;stroke:#0000ff;stroke-width:0.625;stroke-linejoin:round;stroke-opacity:1"
         d="M 8.7185878,4.0337352 -2.2072895,0.01601326 8.7185884,-4.0017078 c -1.7454984,2.3720609 -1.7354408,5.6174519 -6e-7,8.035443 z"
         transform="matrix(-1.1,0,0,-1.1,-1.1,0)" />
    </marker>
    <marker
       inkscape:isstock="true"
       style="overflow:visible"
       id="Arrow2Lend-3-1"
       refX="0"
       refY="0"
       orient="auto"
       inkscape:stockid="Arrow2Lend">
      <path
         transform="matrix(-1.1,0,0,-1.1,-1.1,0)"
         d="M 8.7185878,4.0337352 -2.2072895,0.01601326 8.7185884,-4.0017078 c -1.7454984,2.3720609 -1.7354408,5.6174519 -6e-7,8.035443 z"
         style="fill:#0000ff;fill-opacity:1;fill-rule:evenodd;stroke:#0000ff;stroke-width:0.625;stroke-linejoin:round;stroke-opacity:1"
         id="path1082-6-29" />
    </marker>
    <marker
       inkscape:stockid="Arrow2Lend"
       orient="auto"
       refY="0"
       refX="0"
       id="Arrow2Lend-3-1-9"
       style="overflow:visible"
       inkscape:isstock="true">
      <path
         id="path1082-6-29-4"
         style="fill:#0000ff;fill-opacity:1;fill-rule:evenodd;stroke:#0000ff;stroke-width:0.625;stroke-linejoin:round;stroke-opacity:1"
         d="M 8.7185878,4.0337352 -2.2072895,0.01601326 8.7185884,-4.0017078 c -1.7454984,2.3720609 -1.7354408,5.6174519 -6e-7,8.035443 z"
         transform="matrix(-1.1,0,0,-1.1,-1.1,0)" />
    </marker>
    <marker
       inkscape:isstock="true"
       style="overflow:visible"
       id="Arrow2Lend-3-1-9-8"
       refX="0"
       refY="0"
       orient="auto"
       inkscape:stockid="Arrow2Lend">
      <path
         transform="matrix(-1.1,0,0,-1.1,-1.1,0)"
         d="M 8.7185878,4.0337352 -2.2072895,0.01601326 8.7185884,-4.0017078 c -1.7454984,2.3720609 -1.7354408,5.6174519 -6e-7,8.035443 z"
         style="fill:#0000ff;fill-opacity:1;fill-rule:evenodd;stroke:#0000ff;stroke-width:0.625;stroke-linejoin:round;stroke-opacity:1"
         id="path1082-6-29-4-4" />
    </marker>
    <marker
       inkscape:stockid="Arrow2Lend"
       orient="auto"
       refY="0"
       refX="0"
       id="Arrow2Lend-3-1-9-8-0"
       style="overflow:visible"
       inkscape:isstock="true">
      <path
         id="path1082-6-29-4-4-3"
         style="fill:#0000ff;fill-opacity:1;fill-rule:evenodd;stroke:#0000ff;stroke-width:0.625;stroke-linejoin:round;stroke-opacity:1"
         d="M 8.7185878,4.0337352 -2.2072895,0.01601326 8.7185884,-4.0017078 c -1.7454984,2.3720609 -1.7354408,5.6174519 -6e-7,8.035443 z"
         transform="matrix(-1.1,0,0,-1.1,-1.1,0)" />
    </marker>
    <marker
       inkscape:isstock="true"
       style="overflow:visible"
       id="Arrow2Lend-3-1-9-8-0-1"
       refX="0"
       refY="0"
       orient="auto"
       inkscape:stockid="Arrow2Lend">
      <path
         transform="matrix(-1.1,0,0,-1.1,-1.1,0)"
         d="M 8.7185878,4.0337352 -2.2072895,0.01601326 8.7185884,-4.0017078 c -1.7454984,2.3720609 -1.7354408,5.6174519 -6e-7,8.035443 z"
         style="fill:#0000ff;fill-opacity:1;fill-rule:evenodd;stroke:#0000ff;stroke-width:0.625;stroke-linejoin:round;stroke-opacity:1"
         id="path1082-6-29-4-4-3-0" />
    </marker>
    <marker
       inkscape:isstock="true"
       style="overflow:visible"
       id="Arrow2Lend-3-1-9-8-0-3"
       refX="0"
       refY="0"
       orient="auto"
       inkscape:stockid="Arrow2Lend">
      <path
         transform="matrix(-1.1,0,0,-1.1,-1.1,0)"
         d="M 8.7185878,4.0337352 -2.2072895,0.01601326 8.7185884,-4.0017078 c -1.7454984,2.3720609 -1.7354408,5.6174519 -6e-7,8.035443 z"
         style="fill:#0000ff;fill-opacity:1;fill-rule:evenodd;stroke:#0000ff;stroke-width:0.625;stroke-linejoin:round;stroke-opacity:1"
         id="path1082-6-29-4-4-3-2" />
    </marker>
  </defs>
  <sodipodi:namedview
     inkscape:guide-bbox="true"
     showguides="true"
     inkscape:snap-global="false"
     inkscape:window-maximized="1"
     inkscape:window-y="27"
     inkscape:window-x="0"
     inkscape:window-height="1016"
     inkscape:window-width="1920"
     showgrid="false"
     inkscape:document-rotation="0"
     inkscape:current-layer="layer1"
     inkscape:document-units="mm"
     inkscape:cy="266.55402"
     inkscape:cx="287.83541"
     inkscape:zoom="1.146408"
     inkscape:pageshadow="2"
     inkscape:pageopacity="0.0"
     borderopacity="1.0"
     bordercolor="#666666"
     pagecolor="#ffffff"
     id="base" />
  <metadata
     id="metadata5">
    <rdf:RDF>
      <cc:Work
         rdf:about="">
        <dc:format>image/svg+xml</dc:format>
        <dc:type
           rdf:resource="http://purl.org/dc/dcmitype/StillImage" />
        <dc:title></dc:title>
      </cc:Work>
    </rdf:RDF>
  </metadata>
  <g
     id="layer1"
     inkscape:groupmode="layer"
     inkscape:label="Layer 1">
    <path
       id="path951"
       d="m 59.498833,86.15274 h -4.159752 v -1.476043 -1.476041 h 4.159752 4.159755 v 1.476041 1.476043 z m 0,-0.268373 h 3.891383 v -1.20767 -1.20767 h -3.891383 -3.891381 v 1.20767 1.20767 z m -2.415341,-0.268369 h -0.670929 v -0.134187 -0.134186 h 0.268373 0.268372 v -0.536742 -0.536741 h -0.134186 -0.134186 v -0.134187 -0.134184 h 0.134186 0.134186 v -0.134187 -0.134186 h 0.134184 0.134186 v 0.805114 0.805113 h 0.268372 0.268371 v 0.134186 0.134187 z m 1.610229,0 h -0.402559 v -0.134187 -0.134186 h -0.134184 -0.134185 v -0.670928 -0.670926 h 0.134185 0.134184 v -0.134187 -0.134186 h 0.402559 0.402555 v 0.134186 0.134187 h 0.134185 0.134188 v 0.670926 0.670928 h -0.134188 -0.134185 v 0.134186 0.134187 z m 0,-0.268373 h 0.402555 v -0.402558 -0.402555 h -0.134185 -0.134186 v -0.134185 -0.134185 h 0.134186 0.134185 v -0.134187 -0.134184 h -0.402555 -0.402559 v 0.402556 0.402556 h 0.134187 0.134186 v 0.134184 0.134188 h -0.134186 -0.134187 v 0.134187 0.134183 z m 0,-0.536742 h -0.134186 v -0.134186 -0.134185 h 0.134186 0.134184 v 0.134185 0.134186 z m 1.610226,0.805115 h -0.402555 v -0.134187 -0.134186 h -0.134188 -0.134185 v -0.670928 -0.670926 h 0.134185 0.134188 v -0.134187 -0.134186 h 0.402555 0.402557 v 0.134186 0.134187 h 0.134186 0.134185 v 0.670926 0.670928 H 60.84069 60.706504 v 0.134186 0.134187 z m 0,-0.268373 h 0.402557 V 84.945067 84.542512 H 60.57232 60.438132 v -0.134185 -0.134185 h 0.134188 0.134184 v -0.134187 -0.134184 h -0.402557 -0.402555 v 0.402556 0.402556 h 0.134184 0.134186 v 0.134184 0.134188 h -0.134186 -0.134184 v 0.134187 0.134183 z m 0,-0.536742 h -0.134185 v -0.134186 -0.134185 h 0.134185 0.134185 v 0.134185 0.134186 z m 1.073486,0.805115 h -0.134187 v -0.134187 -0.134186 h 0.134187 0.134185 v -0.26837 -0.268372 h 0.134185 0.134187 v -0.134186 -0.134185 h 0.134184 0.134187 v -0.26837 -0.268371 h 0.134184 0.134187 v -0.134187 -0.134186 h 0.134184 0.134186 v 0.134186 0.134187 h -0.134186 -0.134184 v 0.268371 0.26837 h -0.134187 -0.134184 v 0.134185 0.134186 H 61.914174 61.77999 v 0.268372 0.26837 h -0.134187 -0.134185 v 0.134186 0.134187 z m 1.073483,0 h -0.134184 v -0.268373 -0.26837 h 0.134184 0.134186 v 0.26837 0.268373 z m -1.073483,-1.341856 h -0.134187 v -0.268371 -0.268373 h 0.134187 0.134185 v 0.268373 0.268371 z m 38.242908,1.878598 h -3.48884 v -1.476043 -1.476041 h 3.48884 3.488809 v 1.476041 1.476043 z m 0,-0.268373 h 3.220439 v -1.20767 -1.20767 h -3.220439 -3.22046 v 1.20767 1.20767 z m -2.0128,-0.268369 h -0.40255 v -0.134187 -0.134186 h -0.13418 -0.13419 v -0.536742 -0.536741 h 0.13419 0.13418 v -0.134187 -0.134184 h 0.1342 0.13418 v -0.134187 -0.134186 h 0.26837 0.26837 v 0.134186 0.134187 h -0.26837 -0.26837 v 0.134184 0.134187 h -0.13418 -0.1342 v 0.134185 0.134185 h 0.40255 0.40257 v 0.134185 0.134186 h 0.13419 0.13418 v 0.268372 0.26837 h -0.13418 -0.13419 v 0.134186 0.134187 z m 0,-0.268373 h 0.40257 v -0.26837 -0.268372 h -0.40257 -0.40255 v 0.268372 0.26837 z m 1.61023,0.268373 h -0.67092 v -0.134187 -0.134186 h 0.26837 0.26837 v -0.536742 -0.536741 h -0.13419 -0.13418 v -0.134187 -0.134184 h 0.13418 0.13419 v -0.134187 -0.134186 h 0.13418 0.13419 v 0.805114 0.805113 h 0.26838 0.26836 v 0.134186 0.134187 z m -44.81799,0 h -0.670929 v -0.939301 -0.939299 h 0.670929 0.670928 v 0.134186 0.134187 h -0.536744 -0.536742 v 0.134184 0.134187 h 0.268371 0.268371 v 0.134185 0.134185 h -0.268371 -0.268371 v 0.402555 0.402558 h 0.536742 0.536744 v 0.134186 0.134187 z m 40.52406,0 h -0.40256 v -0.134187 -0.134186 h -0.13418 -0.13419 v -0.670928 -0.670926 h 0.13419 0.13418 v -0.134187 -0.134186 h 0.53674 0.53674 v 0.134186 0.134187 h -0.53674 -0.53674 v 0.670926 0.670928 h 0.40256 0.40256 v -0.402558 -0.402555 h -0.13419 -0.13419 v -0.134185 -0.134185 h 0.26838 0.26836 v 0.536741 0.536742 h -0.13418 -0.13418 v 0.134186 0.134187 z M 18.438038,85.347625 H 17.76711 v -0.134183 -0.134187 h 0.26837 0.26837 V 84.542512 84.005771 H 18.169668 18.03548 v -0.134187 -0.134186 h 0.134188 0.134182 v -0.134186 -0.134185 h 0.134188 0.134184 v 0.805115 0.805113 h 0.268374 0.26837 v 0.134187 0.134183 z m 1.610227,0 h -0.402556 v -0.134183 -0.134187 h -0.134188 -0.134184 v -0.134188 -0.134184 h 0.134184 0.134188 v 0.134184 0.134188 h 0.402556 0.402556 v -0.402558 -0.402555 h -0.536742 -0.536742 v -0.402558 -0.402557 h 0.670928 0.670927 v 0.134185 0.134186 h -0.536743 -0.53674 v 0.134186 0.134187 h 0.402556 0.402556 v 0.134184 0.134187 h 0.134186 0.134185 v 0.402555 0.402558 h -0.134185 -0.134186 v 0.134187 0.134183 z m 1.610226,0 h -0.670928 v -0.134183 -0.134187 h 0.268373 0.268371 V 84.542512 84.005771 H 21.39012 21.255936 v -0.134187 -0.134186 h 0.134184 0.134187 v -0.134186 -0.134185 h 0.134184 0.134187 v 0.805115 0.805113 h 0.268371 0.268372 v 0.134187 0.134183 z m 1.610229,0 h -0.402558 v -0.134183 -0.134187 h -0.134185 -0.134186 v -0.670928 -0.670929 h 0.134186 0.134185 v -0.134186 -0.134185 h 0.402558 0.402556 v 0.134185 0.134186 h 0.134185 0.134187 v 0.670929 0.670928 h -0.134187 -0.134185 v 0.134187 0.134183 z m 0,-0.26837 h 0.402556 V 84.676697 84.274142 H 23.53709 23.402905 v -0.134187 -0.134184 h 0.134185 0.134186 V 83.871584 83.737398 H 23.26872 22.866162 v 0.402557 0.402557 h 0.134187 0.134184 v 0.134185 0.134186 h -0.134184 -0.134187 v 0.134184 0.134188 z m 0,-0.536743 h -0.134187 v -0.134185 -0.134185 h 0.134187 0.134185 v 0.134185 0.134185 z m 2.14697,0.805113 h -0.134188 v -0.134183 -0.134187 h 0.134188 0.134185 v -0.268372 -0.268371 h 0.134185 0.134186 v -0.134185 -0.134185 h 0.134184 0.134188 v -0.268371 -0.268373 h 0.134185 0.134186 v -0.134186 -0.134185 h 0.134184 0.134187 v 0.134185 0.134186 h -0.134187 -0.134184 v 0.268373 0.268371 h -0.134186 -0.134185 v 0.134185 0.134185 H 25.95243 25.818246 v 0.268371 0.268372 H 25.68406 25.549875 v 0.134187 0.134183 z m 5.367423,0 h -0.134185 v -0.26837 -0.268372 h -0.536742 -0.536744 v -0.268371 -0.26837 h 0.134187 0.134184 V 84.139955 84.005771 H 29.978 30.112186 v -0.134187 -0.134186 h 0.134184 0.134187 v -0.134186 -0.134185 h 0.268371 0.268372 v 0.9393 0.939298 z M 30.24637,84.542512 h 0.402558 v -0.402557 -0.402557 h -0.134187 -0.134184 v 0.134186 0.134187 H 30.24637 30.112186 v 0.134184 0.134187 H 29.978 29.843813 v 0.134185 0.134185 z m 1.610228,0.805113 H 31.454041 V 85.213442 85.079255 H 31.319856 31.18567 v -0.670928 -0.670929 h 0.134186 0.134185 v -0.134186 -0.134185 h 0.402557 0.402558 v 0.134185 0.134186 h 0.134183 0.134187 v 0.670929 0.670928 h -0.134187 -0.134183 v 0.134187 0.134183 z m 0,-0.26837 h 0.402558 V 84.676697 84.274142 H 32.12497 31.990784 v -0.134187 -0.134184 h 0.134186 0.134186 v -0.134187 -0.134186 h -0.402558 -0.402557 v 0.402557 0.402557 h 0.134187 0.134183 v 0.134185 0.134186 h -0.134183 -0.134187 v 0.134184 0.134188 z m 0,-0.536743 h -0.134187 v -0.134185 -0.134185 h 0.134187 0.134186 v 0.134185 0.134185 z m 2.146971,0.805113 h -0.134186 v -0.26837 -0.268372 h -0.536742 -0.536743 v -0.268371 -0.26837 h 0.134184 0.134187 v -0.134187 -0.134184 h 0.134186 0.134186 v -0.134187 -0.134186 h 0.134185 0.134184 v -0.134186 -0.134185 h 0.268373 0.26837 v 0.9393 0.939298 z m -0.536743,-0.805113 h 0.402557 V 84.139955 83.737398 H 33.735197 33.60101 v 0.134186 0.134187 h -0.134184 -0.134185 v 0.134184 0.134187 h -0.134186 -0.134186 v 0.134185 0.134185 z m 1.476041,0.805113 h -0.26837 v -0.134183 -0.134187 h 0.26837 0.268373 v -0.134188 -0.134184 h 0.134184 0.134186 v -0.134186 -0.134185 h -0.402558 -0.402555 v -0.134185 -0.134185 h -0.134185 -0.134188 v -0.268371 -0.268373 h 0.134188 0.134185 v -0.134186 -0.134185 h 0.402555 0.402558 v 0.134185 0.134186 h 0.134185 0.134185 v 0.536744 0.536741 H 35.613795 35.47961 v 0.134184 0.134188 H 35.345424 35.21124 v 0.134187 0.134183 z m 0.134185,-1.073483 h 0.402558 v -0.268371 -0.268373 h -0.402558 -0.402555 v 0.268373 0.268371 z m -6.44091,0.26837 h -0.670925 v -0.134185 -0.134185 h 0.670925 0.670928 v 0.134185 0.134185 z m 65.482579,-1.341856 h -0.9393 v -0.134184 -0.134188 h 0.80512 0.80511 V 80.9195 78.906716 h -0.80511 -0.80512 v -0.134185 -0.134185 h 0.40256 0.40256 v -2.146971 -2.146969 h 0.40256 0.40255 v -6.172537 -6.172538 h -0.80511 -0.80512 V 61.865144 61.73096 h 0.9393 0.9393 v 0.805112 0.805113 h 0.40256 0.40256 v 0.134188 0.134185 h -0.40256 -0.40256 v 1.207671 1.207669 h 0.40256 0.40256 v 0.134186 0.134187 h -0.40256 -0.40256 v 1.207671 1.20767 h 0.40256 0.40256 v 0.134184 0.134187 h -0.40256 -0.40256 v 1.207669 1.207671 h 0.67093 0.67093 v 0.134184 0.134187 h -0.67093 -0.67093 v 1.20767 1.20767 h 0.40256 0.40256 v 0.134187 0.134185 h -0.40256 -0.40256 v 1.207671 1.20767 h 0.40256 0.40256 v 0.134185 0.134184 h -0.40256 -0.40256 v 1.207671 1.207673 h 0.40256 0.40256 v 0.134184 0.134188 h -0.40256 -0.40256 v 1.744411 1.744413 z M 14.949211,80.785315 H 14.546656 V 80.651131 80.516945 H 14.41247 14.278283 v -0.134188 -0.134185 h 0.134187 0.134186 v 0.134185 0.134188 h 0.402555 0.402558 v -0.402558 -0.402555 h -0.536743 -0.536743 v -0.402558 -0.402558 h 0.670928 0.67093 v 0.134185 0.134186 h -0.536743 -0.536742 v 0.134187 0.134186 h 0.402555 0.402558 v 0.134184 0.134188 h 0.134185 0.134187 v 0.402555 0.402558 h -0.134187 -0.134185 v 0.134186 0.134184 z m 2.415341,-0.805113 h -0.670927 v -0.134186 -0.134184 h 0.670927 0.670928 v 0.134184 0.134186 z m 0.26837,-1.878599 h -0.402555 v -0.134186 -0.134185 h 0.402555 0.402558 v 0.134185 0.134186 z m 0,-2.14697 h -0.402555 v -0.134188 -0.134183 h 0.402555 0.402558 v 0.134183 0.134188 z m 0,-1.878599 h -0.402555 v -0.134183 -0.134188 h 0.402555 0.402558 v 0.134188 0.134183 z M 14.949211,72.73418 H 14.546656 V 72.599992 72.465806 H 14.41247 14.278283 v -0.536742 -0.536741 h 0.134187 0.134186 v -0.134188 -0.134184 h 0.134183 0.134187 V 70.989766 70.85558 h 0.268372 0.268371 v 0.134186 0.134185 h -0.268371 -0.268372 v 0.134184 0.134188 h -0.134187 -0.134183 v 0.134184 0.134187 h 0.402555 0.402558 v 0.134186 0.134184 h 0.134185 0.134187 v 0.268372 0.26837 h -0.134187 -0.134185 v 0.134186 0.134188 z m 0,-0.268374 h 0.402558 v -0.26837 -0.268372 h -0.402558 -0.402555 v 0.268372 0.26837 z m 82.65833,0 h -0.67092 v -0.134184 -0.134186 h 0.26837 0.26838 v -0.536742 -0.536743 h -0.13418 -0.1342 V 70.989766 70.85558 h 0.1342 0.13418 v -0.134185 -0.134184 h 0.13417 0.1342 v 0.805112 0.805113 h 0.26837 0.26837 v 0.134186 0.134184 z m 1.61023,0 h -0.40255 v -0.134184 -0.134186 h -0.13418 -0.13419 V 71.526507 70.85558 h 0.13419 0.13418 v -0.134185 -0.134184 h 0.40255 0.40257 v 0.134184 0.134185 h 0.13418 0.13418 v 0.670927 0.670929 h -0.13418 -0.13418 v 0.134186 0.134184 z m 0,-0.26837 h 0.40257 V 71.79488 71.392323 h -0.13419 -0.13419 v -0.134188 -0.134184 h 0.13419 0.13419 V 70.989766 70.85558 h -0.40257 -0.40255 v 0.402555 0.402559 h 0.13418 0.13419 v 0.134186 0.134184 h -0.13419 -0.13418 v 0.134187 0.134185 z m 0,-0.536742 h -0.13418 v -0.134187 -0.134184 h 0.13418 0.13419 v 0.134184 0.134187 z m 1.610229,0.805112 h -0.40255 v -0.134184 -0.134186 h -0.13418 -0.1342 V 71.526507 70.85558 h 0.1342 0.13418 v -0.134185 -0.134184 h 0.40255 0.40257 v 0.134184 0.134185 h 0.13417 0.1342 v 0.670927 0.670929 h -0.1342 -0.13417 v 0.134186 0.134184 z m 0,-0.26837 h 0.40257 V 71.79488 71.392323 h -0.13419 -0.13419 v -0.134188 -0.134184 h 0.13419 0.13419 V 70.989766 70.85558 h -0.40257 -0.40255 v 0.402555 0.402559 h 0.13419 0.13418 v 0.134186 0.134184 h -0.13418 -0.13419 v 0.134187 0.134185 z m 0,-0.536742 h -0.13418 v -0.134187 -0.134184 h 0.13418 0.13419 v 0.134184 0.134187 z m -83.463448,0.26837 H 16.693625 V 71.79488 71.660694 h 0.670927 0.670928 v 0.134186 0.134184 z m 39.182198,0 H 55.607452 V 71.526507 71.123951 H 55.070709 54.533965 V 70.989766 70.85558 h 0.536744 0.536743 v -0.402557 -0.402556 h 0.402557 0.402554 v -0.536743 -0.536741 h 0.134187 0.134186 v 0.536741 0.536743 h 0.402556 0.402558 v 0.402556 0.402557 h 0.536743 0.536742 v 0.134186 0.134185 H 58.022793 57.48605 v 0.402556 0.402557 z m 0,-0.26837 h 0.670928 V 70.989766 70.318837 H 56.54675 55.875821 v 0.670929 0.670928 z M 93.637841,70.85558 h -0.048 l -0.0457,-0.07394 -0.0457,-0.07394 0.45912,-0.46266 0.45911,-0.462657 -0.38743,-0.391505 -0.38742,-0.391513 0.0915,-0.07598 0.0915,-0.07597 0.46387,0.467448 0.46387,0.467456 -0.53348,0.536626 -0.53348,0.53663 z M 17.632922,70.050467 h -0.402555 v -0.134184 -0.134188 h 0.402555 0.402558 v 0.134188 0.134184 z m 0,-2.14697 h -0.402555 v -0.134185 -0.134187 h 0.402555 0.402558 v 0.134187 0.134185 z m 32.607105,-1.073483 h -0.536743 v -0.134188 -0.134185 h 0.536743 0.536743 v 0.134185 0.134188 z m 1.610226,0 H 51.31351 v -0.134188 -0.134185 h 0.536743 0.536744 v 0.134185 0.134188 z m 2.012785,0 H 52.92374 v -0.134188 -0.134185 h 0.939298 0.939301 v 0.134185 0.134188 z m 4.964867,0 h -0.536743 v -0.134188 -0.134185 h 0.536743 0.536744 v 0.134185 0.134188 z m 1.610227,0 h -0.53674 v -0.134188 -0.134185 h 0.53674 0.536743 v 0.134185 0.134188 z m 2.012784,0 h -0.939298 v -0.134188 -0.134185 h 0.939298 0.9393 v 0.134185 0.134188 z M 17.632922,66.024898 h -0.402555 v -0.134186 -0.134185 h 0.402555 0.402558 v 0.134185 0.134186 z m 32.607105,0 h -0.536743 v -0.134186 -0.134185 h 0.536743 0.536743 v 0.134185 0.134186 z m 1.610226,0 H 51.31351 v -0.134186 -0.134185 h 0.536743 0.536744 v 0.134185 0.134186 z m 2.012785,0 H 52.92374 v -0.134186 -0.134185 h 0.939298 0.939301 v 0.134185 0.134186 z m 4.964867,0 h -0.536743 v -0.134186 -0.134185 h 0.536743 0.536744 v 0.134185 0.134186 z m 1.610227,0 h -0.53674 v -0.134186 -0.134185 h 0.53674 0.536743 v 0.134185 0.134186 z m 2.012784,0 h -0.939298 v -0.134186 -0.134185 h 0.939298 0.9393 v 0.134185 0.134186 z M 44.872601,65.219784 H 34.942867 V 65.0856 64.951413 h 9.929734 9.929738 v 0.134187 0.134184 z m 23.3483,0 H 58.291162 V 65.0856 64.951413 h 9.929739 9.929734 V 65.0856 65.219784 Z M 17.364552,63.877929 h -0.670927 v -0.134186 -0.134185 h 0.670927 0.670928 v 0.134185 0.134186 z M 11.997129,63.341185 H 7.8373753 v -1.476041 -1.476041 h 4.1597537 4.159752 v 1.476041 1.476041 z m 0,-0.26837 H 15.88851 V 61.865144 60.657473 H 11.997129 8.1057463 v 1.207671 1.207671 z M 11.192016,62.804443 H 11.057829 V 62.401887 61.999331 H 11.192016 11.3262 V 61.865144 61.73096 h 0.134186 0.134184 v -0.268372 -0.268372 h -0.402554 -0.402558 v 0.134185 0.134187 h -0.134186 -0.134185 v -0.268372 -0.26837 h 0.670929 0.670926 v 0.402555 0.402559 H 11.728758 11.59457 v 0.134184 0.134187 H 11.460386 11.3262 v 0.402556 0.402556 z m 1.073482,0 h -0.134184 v -0.134184 -0.134187 h 0.134184 0.134188 v 0.134187 0.134184 z m 1.073487,0 h -0.670928 v -0.134184 -0.134187 h 0.26837 0.268373 v -0.536741 -0.536743 h -0.134188 -0.134185 v -0.134187 -0.134185 h 0.134185 0.134188 v -0.134184 -0.134186 h 0.134185 0.134184 v 0.805114 0.805112 h 0.268372 0.26837 v 0.134187 0.134184 z m 1.476041,0 h -0.26837 v -0.134184 -0.134187 h 0.26837 0.268372 v -0.134185 -0.134185 h 0.134184 0.134187 V 62.133515 61.999331 H 14.949211 14.546656 V 61.865144 61.73096 H 14.41247 14.278283 v -0.268372 -0.268372 h 0.134187 0.134186 v -0.134184 -0.134186 h 0.402555 0.402558 v 0.134186 0.134184 h 0.134185 0.134187 v 0.536744 0.536742 h -0.134187 -0.134185 v 0.134185 0.134185 h -0.134187 -0.134184 v 0.134187 0.134184 z m 0.134185,-1.073483 h 0.402558 v -0.268372 -0.268372 h -0.402558 -0.402555 v 0.268372 0.268372 z m 84.67113,1.610225 h -3.48884 v -1.476041 -1.476041 h 3.48884 3.488809 v 1.476041 1.476041 z m 0,-0.26837 h 3.220439 v -1.207671 -1.207671 h -3.220439 -3.22046 v 1.207671 1.207671 z m -2.0128,-0.268372 h -0.67092 v -0.134184 -0.134187 h 0.26837 0.26838 v -0.536741 -0.536743 h -0.13418 -0.1342 v -0.134187 -0.134185 h 0.1342 0.13418 v -0.134184 -0.134186 h 0.13417 0.1342 v 0.805114 0.805112 h 0.26837 0.26837 v 0.134187 0.134184 z m 1.61023,0 h -0.40255 v -0.134184 -0.134187 h -0.13418 -0.13419 v -0.134185 -0.134185 h 0.13419 0.13418 v 0.134185 0.134185 h 0.40255 0.40257 v -0.26837 -0.268371 h -0.26838 -0.26837 V 61.865144 61.73096 h 0.26837 0.26838 v -0.268372 -0.268372 h -0.40257 -0.40255 v 0.134185 0.134187 h -0.13418 -0.13419 v -0.134187 -0.134185 h 0.13419 0.13418 v -0.134184 -0.134186 h 0.40255 0.40257 v 0.134186 0.134184 h 0.13418 0.13418 v 0.268372 0.268372 h -0.13418 -0.13418 v 0.134184 0.134187 h 0.13418 0.13418 v 0.268371 0.26837 h -0.13418 -0.13418 v 0.134187 0.134184 z m 1.610229,0 h -0.40255 v -0.134184 -0.134187 h -0.13418 -0.1342 v -0.134185 -0.134185 h 0.1342 0.13418 v 0.134185 0.134185 h 0.40255 0.40257 V 62.133515 61.73096 h -0.53675 -0.53675 v -0.402559 -0.402555 h 0.67093 0.67094 v 0.134186 0.134184 h -0.53675 -0.53674 v 0.134185 0.134187 h 0.40255 0.40257 v 0.134186 0.134186 h 0.13417 0.1342 v 0.402555 0.402557 h -0.1342 -0.13417 v 0.134187 0.134184 z M 56.27838,63.072815 H 56.144193 V 62.536072 61.999331 H 55.607452 55.070709 V 61.865144 61.73096 h 0.536743 0.536741 v -0.536744 -0.536743 h 0.134187 0.134183 v 0.536743 0.536744 h 0.536745 0.536742 v 0.134184 0.134187 h -0.536742 -0.536745 v 0.536741 0.536743 z M 17.632922,61.999331 H 17.230367 V 61.865144 61.73096 h 0.402555 0.402558 v 0.134184 0.134187 z m 77.827659,-1.073485 h -0.40256 V 60.79166 60.657473 h 0.40256 0.40256 v 0.134187 0.134186 z M 17.632922,59.852362 H 17.230367 V 59.718175 59.58399 h 0.402555 0.402558 v 0.134185 0.134187 z m 79.974619,-0.805115 h -0.67092 v -0.134185 -0.134187 h 0.26837 0.26838 v -0.536743 -0.53674 h -0.13418 -0.1342 V 57.571204 57.43702 h 0.1342 0.13418 v -0.134186 -0.134185 h 0.13417 0.1342 v 0.805113 0.805113 h 0.26837 0.26837 v 0.134187 0.134185 z m 1.61023,0 h -0.40255 v -0.134185 -0.134187 h -0.13418 -0.13419 v -0.134184 -0.134187 h 0.13419 0.13418 v 0.134187 0.134184 h 0.40255 0.40257 V 58.37632 57.973762 h -0.53675 -0.53674 v -0.402558 -0.402555 h 0.67092 0.67093 v 0.134185 0.134186 h -0.53674 -0.53674 v 0.134184 0.134188 h 0.40255 0.40257 v 0.134184 0.134186 h 0.13418 0.13418 v 0.402558 0.402555 h -0.13418 -0.13418 v 0.134187 0.134185 z m 1.610229,0 h -0.40255 v -0.134185 -0.134187 h -0.13418 -0.1342 V 58.107948 57.43702 h 0.1342 0.13418 v -0.134186 -0.134185 h 0.40255 0.40257 v 0.134185 0.134186 h 0.13417 0.1342 v 0.670928 0.670927 h -0.1342 -0.13417 v 0.134187 0.134185 z m 0,-0.268372 h 0.40257 V 58.37632 57.973762 h -0.13419 -0.13419 v -0.134186 -0.134184 h 0.13419 0.13419 V 57.571204 57.43702 h -0.40257 -0.40255 v 0.402556 0.402556 h 0.13419 0.13418 v 0.134188 0.134184 h -0.13418 -0.13419 v 0.134187 0.134184 z m 0,-0.536743 h -0.13418 v -0.134184 -0.134186 h 0.13418 0.13419 v 0.134186 0.134184 z m -5.099049,0 h -0.67093 v -0.134184 -0.134186 h 0.67093 0.67093 v 0.134186 0.134184 z m -78.096029,-0.26837 h -0.402555 v -0.134186 -0.134184 h 0.402555 0.402558 v 0.134184 0.134186 z M 14.949211,56.631906 H 14.546656 V 56.497721 56.363533 H 14.41247 14.278283 v -0.26837 -0.268371 h 0.134187 0.134186 V 55.692605 55.558422 H 14.41247 14.278283 V 55.29005 55.02168 h 0.134187 0.134186 v -0.134188 -0.134184 h 0.402555 0.402558 v 0.134184 0.134188 h 0.134185 0.134187 v 0.26837 0.268372 h -0.134187 -0.134185 v 0.134183 0.134187 h 0.134185 0.134187 v 0.268371 0.26837 h -0.134187 -0.134185 v 0.134188 0.134185 z m 0,-0.268373 h 0.402558 v -0.26837 -0.268371 h -0.402558 -0.402555 v 0.268371 0.26837 z m 0,-0.805111 h 0.402558 V 55.29005 55.02168 h -0.402558 -0.402555 v 0.26837 0.268372 z m 2.415341,0.26837 h -0.670927 v -0.134187 -0.134183 h 0.670927 0.670928 v 0.134183 0.134187 z m 78.096029,-0.26837 h -0.40256 V 55.424235 55.29005 h 0.40256 0.40256 v 0.134185 0.134187 z M 17.632922,53.948193 h -0.402555 v -0.134184 -0.134188 h 0.402555 0.402558 v 0.134188 0.134184 z M 95.460581,52.87471 h -0.40256 v -0.134187 -0.134185 h 0.40256 0.40256 v 0.134185 0.134187 z M 17.632922,51.801224 h -0.402555 v -0.134185 -0.134187 h 0.402555 0.402558 v 0.134187 0.134185 z m 77.827659,-1.610228 h -0.40256 V 50.05681 49.922625 h 0.40256 0.40256 v 0.134185 0.134186 z M 17.632922,49.922625 h -0.402555 v -0.134184 -0.134187 h 0.402555 0.402558 v 0.134187 0.134184 z m -2.817896,-1.341854 h -0.26837 v -0.134188 -0.134185 h 0.26837 0.268372 v -0.134186 -0.134184 h 0.134184 0.134187 V 47.909841 47.775655 H 14.949211 14.546656 V 47.64147 47.507284 H 14.41247 14.278283 v -0.268372 -0.268371 h 0.134187 0.134186 v -0.134185 -0.134185 h 0.402555 0.402558 v 0.134185 0.134185 h 0.134185 0.134187 v 0.536743 0.536744 h -0.134187 -0.134185 v 0.134184 0.134186 h -0.134187 -0.134184 v 0.134185 0.134188 z m 0.134185,-1.073487 h 0.402558 v -0.268372 -0.268371 h -0.402558 -0.402555 v 0.268371 0.268372 z m 2.415341,0.268371 H 16.693625 V 47.64147 47.507284 h 0.670927 0.670928 v 0.134186 0.134185 z m 78.096029,-0.268371 h -0.40256 V 47.3731 47.238912 h 0.40256 0.40256 V 47.3731 47.507284 Z M 17.632922,45.897059 h -0.402555 v -0.134188 -0.134186 h 0.402555 0.402558 v 0.134186 0.134188 z m 79.974619,-0.268374 h -0.67092 v -0.26837 -0.268372 h 0.13419 0.13418 v -0.134184 -0.134187 h 0.1342 0.13418 v -0.134184 -0.134187 h 0.26837 0.26837 v -0.26837 -0.268371 h -0.40257 -0.40255 v 0.134184 0.134187 h -0.13418 -0.13419 V 44.152644 44.01846 h 0.13419 0.13418 v -0.134187 -0.134185 h 0.40255 0.40257 v 0.134185 0.134187 h 0.13419 0.13418 v 0.268371 0.26837 h -0.13418 -0.13419 v 0.134187 0.134184 h -0.26837 -0.26837 v 0.134187 0.134184 h -0.13418 -0.1342 v 0.134186 0.134186 h 0.40255 0.40257 v -0.134186 -0.134186 h 0.13419 0.13418 v 0.268372 0.26837 z m 1.61023,0 h -0.40255 V 45.4945 45.360315 h -0.13418 -0.13419 V 44.689388 44.01846 h 0.13419 0.13418 v -0.134187 -0.134185 h 0.40255 0.40257 v 0.134185 0.134187 h 0.13418 0.13418 v 0.670928 0.670927 h -0.13418 -0.13418 v 0.134185 0.134185 z m 0,-0.26837 h 0.40257 v -0.402556 -0.402558 h -0.13419 -0.13419 v -0.134187 -0.134183 h 0.13419 0.13419 V 44.152644 44.01846 h -0.40257 -0.40255 v 0.402554 0.402558 h 0.13418 0.13419 v 0.134187 0.134184 h -0.13419 -0.13418 v 0.134186 0.134186 z m 0,-0.536743 h -0.13418 v -0.134184 -0.134187 h 0.13418 0.13419 v 0.134187 0.134184 z m 1.610229,0.805113 h -0.40255 V 45.4945 45.360315 h -0.13418 -0.1342 V 44.689388 44.01846 h 0.1342 0.13418 v -0.134187 -0.134185 h 0.40255 0.40257 v 0.134185 0.134187 h 0.13417 0.1342 v 0.670928 0.670927 h -0.1342 -0.13417 v 0.134185 0.134185 z m 0,-0.26837 h 0.40257 v -0.402556 -0.402558 h -0.13419 -0.13419 v -0.134187 -0.134183 h 0.13419 0.13419 V 44.152644 44.01846 h -0.40257 -0.40255 v 0.402554 0.402558 h 0.13419 0.13418 v 0.134187 0.134184 h -0.13418 -0.13419 v 0.134186 0.134186 z m 0,-0.536743 h -0.13418 v -0.134184 -0.134187 h 0.13418 0.13419 v 0.134187 0.134184 z m -56.894697,0.536743 h -0.670928 v -0.268372 -0.268371 h 0.134186 0.134187 v -0.134184 -0.134187 h 0.134182 0.134188 v -0.134187 -0.134183 h 0.268371 0.268372 V 44.01846 43.750088 h -0.402558 -0.402555 v 0.134185 0.134187 h -0.134187 -0.134186 v -0.134187 -0.134185 h 0.134186 0.134187 v -0.134187 -0.134185 h 0.402555 0.402558 v 0.134185 0.134187 h 0.134184 0.134186 v 0.268372 0.268371 h -0.134186 -0.134184 v 0.134183 0.134187 h -0.268372 -0.268371 v 0.134187 0.134184 H 43.66493 43.530748 v 0.134187 0.134184 h 0.402555 0.402558 v -0.134184 -0.134187 h 0.134184 0.134186 v 0.268371 0.268372 z m 1.610228,0 h -0.402558 v -0.134186 -0.134186 h -0.134184 -0.134188 v -0.670929 -0.670926 h 0.134188 0.134184 v -0.134187 -0.134185 h 0.402558 0.402557 v 0.134185 0.134187 h 0.134184 0.134187 v 0.670926 0.670929 h -0.134187 -0.134184 v 0.134186 0.134186 z m 0,-0.268372 h 0.402557 V 44.689388 44.286831 H 45.811901 45.677717 V 44.152644 44.01846 h 0.134184 0.134187 v -0.134187 -0.134185 h -0.402557 -0.402558 v 0.402556 0.402557 h 0.134187 0.134184 v 0.134187 0.134184 H 45.27516 45.140973 v 0.134187 0.134184 z m 0,-0.536742 h -0.134187 v -0.134187 -0.134183 h 0.134187 0.134186 v 0.134183 0.134187 z m 21.738068,0.805114 h -0.670928 v -0.268372 -0.268371 h 0.134185 0.134187 v -0.134184 -0.134187 h 0.134187 0.134184 v -0.134187 -0.134183 h 0.268371 0.268369 V 44.01846 43.750088 h -0.402555 -0.402556 v 0.134185 0.134187 h -0.134187 -0.134185 v -0.134187 -0.134185 h 0.134185 0.134187 v -0.134187 -0.134185 h 0.402556 0.402555 v 0.134185 0.134187 h 0.134188 0.134185 v 0.268372 0.268371 h -0.134185 -0.134188 v 0.134183 0.134187 h -0.268369 -0.268371 v 0.134187 0.134184 H 67.01323 66.879043 v 0.134187 0.134184 h 0.402556 0.402555 v -0.134184 -0.134187 h 0.134188 0.134185 v 0.268371 0.268372 z m 1.610226,0 H 68.48927 v -0.134186 -0.134186 h -0.134185 -0.134184 v -0.670929 -0.670926 h 0.134184 0.134185 v -0.134187 -0.134185 h 0.402555 0.402559 v 0.134185 0.134187 h 0.134185 0.134187 v 0.670926 0.670929 h -0.134187 -0.134185 v 0.134186 0.134186 z m 0,-0.268372 h 0.402559 V 44.689388 44.286831 H 69.160198 69.026013 V 44.152644 44.01846 h 0.134185 0.134186 V 43.884273 43.750088 H 68.891825 68.48927 v 0.402556 0.402557 h 0.134186 0.134185 v 0.134187 0.134184 H 68.623456 68.48927 v 0.134187 0.134184 z m 0,-0.536742 h -0.134184 v -0.134187 -0.134183 h 0.134184 0.134188 v 0.134183 0.134187 z M 47.95887,44.823572 h -0.134185 v -0.670928 -0.670928 h 3.488825 3.488829 v 0.134185 0.134187 h -3.354641 -3.354641 v 0.536743 0.536741 z m 17.17576,0 h -0.134186 v -0.536741 -0.536743 h -3.354641 -3.354641 v -0.134187 -0.134185 h 3.488828 3.488824 v 0.670928 0.670928 z m 30.594321,0 h -0.67093 v -0.134184 -0.134187 h 0.67093 0.67093 v 0.134187 0.134184 z M 17.632922,43.750088 h -0.402555 v -0.134187 -0.134185 h 0.402555 0.402558 v 0.134185 0.134187 z m 24.958525,-0.268372 h -0.670928 v -0.268372 -0.268371 h 0.134185 0.134187 v -0.134184 -0.134186 h 0.134186 0.134184 v -0.134186 -0.134186 h 0.134186 0.134185 V 42.274045 42.13986 h 0.134187 0.134183 v -0.134186 -0.134185 h -0.536741 -0.536742 v -0.134186 -0.134184 h 0.670928 0.670928 v 0.26837 0.268371 H 43.12819 42.994002 v 0.134185 0.134186 h -0.134183 -0.134187 v 0.134186 0.134186 h -0.134185 -0.134186 v 0.134186 0.134184 h -0.134184 -0.134186 v 0.134187 0.134184 h 0.536741 0.536743 v 0.134187 0.134185 z m -1.610226,-0.805113 h -0.67093 v -0.134186 -0.134186 h 0.67093 0.670928 v 0.134186 0.134186 z m 54.47936,-0.536743 h -0.40256 v -0.134186 -0.134185 h 0.40256 0.40256 v 0.134185 0.134186 z m -38.079826,-0.0879 -0.06337,0.02112 -0.45167,-0.451668 -0.451662,-0.451666 -0.392105,0.388012 -0.392103,0.388012 -0.08959,-0.10794 -0.08959,-0.10794 0.462568,-0.46614 0.462568,-0.46614 0.555493,0.5526 0.555487,0.552604 -0.02134,0.06401 -0.02134,0.06401 z M 17.632922,41.871489 h -0.402555 v -0.134186 -0.134184 h 0.402555 0.402558 v 0.134184 0.134186 z m 3.488828,-1.073485 h -0.134187 v -0.402556 -0.402559 h 0.134187 0.134186 v 0.402559 0.402556 z m 5.367423,0 h -0.134184 v -0.805115 -0.805112 h 0.134184 0.134187 v 0.805112 0.805115 z m 5.367425,0 h -0.134187 v -0.402556 -0.402559 h 0.134187 0.134186 v 0.402559 0.402556 z m 5.367424,0 h -0.134184 v -0.402556 -0.402559 h 0.134184 0.134187 v 0.402559 0.402556 z m 4.830682,0 h -0.134185 v -0.9393 -0.939298 h 0.134185 0.134187 v 0.134185 0.134186 h 0.134186 0.134184 v 0.134184 0.134188 h 0.134186 0.134185 v 0.134185 0.134186 h 0.134187 0.134183 v -0.402559 -0.402555 h 0.134188 0.134185 v 0.939298 0.9393 H 43.12819 42.994002 V 40.395448 39.992889 H 42.859819 42.725632 V 39.858704 39.72452 h -0.134185 -0.134186 v -0.134186 -0.134185 h -0.134184 -0.134186 v 0.670927 0.670928 z m 5.904166,0 h -0.134185 v -0.402556 -0.402559 h 0.134185 0.134187 v 0.402559 0.402556 z m 5.367425,0 H 53.19211 v -0.402556 -0.402559 h 0.134185 0.134187 v 0.402559 0.402556 z m 5.367426,0 h -0.134186 v -0.805115 -0.805112 h 0.134186 0.134184 v 0.805112 0.805115 z m 5.367424,0 H 63.92696 v -0.402556 -0.402559 h 0.134185 0.134185 v 0.402559 0.402556 z m 5.367424,0 h -0.134185 v -0.402556 -0.402559 h 0.134185 0.134187 v 0.402559 0.402556 z m 5.367425,0 h -0.134188 v -0.805115 -0.805112 h 0.134188 0.134187 v 0.805112 0.805115 z m 5.367423,0 h -0.134184 v -0.402556 -0.402559 h 0.134184 0.134187 v 0.402559 0.402556 z m 5.367428,0 h -0.134187 v -0.402556 -0.402559 h 0.134187 0.134178 v 0.402559 0.402556 z m 5.36742,0 h -0.134178 v -0.805115 -0.805112 h 0.134178 0.134188 v 0.805112 0.805115 z M 56.54675,38.651033 h -4.159753 v -1.476041 -1.476041 h 4.159753 4.159754 v 1.476041 1.476041 z m 0,-0.26837 h 3.891382 V 37.174992 35.967321 H 56.54675 52.655369 v 1.207671 1.207671 z M 54.936522,38.114291 H 54.533965 V 37.980107 37.84592 h -0.134184 -0.134187 v -0.670928 -0.670928 h 0.134187 0.134184 V 36.36988 36.235693 h 0.402557 0.402559 v 0.134187 0.134184 h 0.134184 0.134187 v 0.670928 0.670928 h -0.134187 -0.134184 v 0.134187 0.134184 z m 0,-0.268371 h 0.402559 v -0.402558 -0.402554 h -0.134188 -0.134184 v -0.134187 -0.134186 h 0.134184 0.134188 v -0.134186 -0.134185 h -0.402559 -0.402557 v 0.402557 0.402558 h 0.134187 0.134187 v 0.134183 0.134188 h -0.134187 -0.134187 v 0.134185 0.134185 z m 0,-0.536741 h -0.134183 v -0.134187 -0.134184 h 0.134183 0.134187 v 0.134184 0.134187 z m 1.610228,0.805112 H 55.875821 V 37.980107 37.84592 h 0.268372 0.26837 V 37.309179 36.772435 H 56.27838 56.144193 v -0.134186 -0.134185 h 0.134187 0.134183 V 36.36988 36.235693 h 0.134187 0.134186 v 0.805115 0.805112 h 0.268372 0.26837 v 0.134187 0.134184 z m 1.610228,0 H 57.754421 V 37.980107 37.84592 H 57.620234 57.48605 V 37.711735 37.57755 h 0.134184 0.134187 v 0.134185 0.134185 h 0.402557 0.402557 v -0.26837 -0.268371 h -0.268373 -0.268369 v -0.134187 -0.134184 h 0.268369 0.268373 v -0.268373 -0.268371 h -0.402557 -0.402557 v 0.134185 0.134186 H 57.620234 57.48605 v -0.134186 -0.134185 h 0.134184 0.134187 V 36.36988 36.235693 h 0.402557 0.402557 v 0.134187 0.134184 h 0.134186 0.134184 v 0.268371 0.268373 h -0.134184 -0.134186 v 0.134184 0.134187 h 0.134186 0.134184 v 0.268371 0.26837 h -0.134184 -0.134186 v 0.134187 0.134184 z m -33.278031,0 H 24.476391 V 37.980107 37.84592 H 24.342204 24.208019 V 37.711735 37.57755 h 0.134185 0.134187 v 0.134185 0.134185 h 0.402556 0.402555 v -0.26837 -0.268371 h -0.26837 -0.268372 v -0.134187 -0.134184 h 0.268372 0.26837 v -0.268373 -0.268371 h -0.402555 -0.402556 v 0.134185 0.134186 h -0.134187 -0.134185 v -0.134186 -0.134185 h 0.134185 0.134187 V 36.36988 36.235693 h 0.402556 0.402555 v 0.134187 0.134184 h 0.134188 0.134185 v 0.268371 0.268373 H 25.41569 25.281502 v 0.134184 0.134187 h 0.134188 0.134185 v 0.268371 0.26837 H 25.41569 25.281502 v 0.134187 0.134184 z m 2.14697,0 H 26.891731 V 37.84592 37.57755 h -0.536742 -0.536743 v -0.268371 -0.268371 h 0.134184 0.134188 v -0.134187 -0.134186 h 0.134185 0.134186 v -0.134186 -0.134185 h 0.134184 0.134187 V 36.36988 36.235693 h 0.268371 0.26837 v 0.939299 0.939299 z m -0.536744,-0.805112 h 0.402558 V 36.906621 36.504064 H 26.757546 26.62336 v 0.134185 0.134186 h -0.134187 -0.134184 v 0.134186 0.134187 h -0.134186 -0.134185 v 0.134184 0.134187 z m 1.610228,0.805112 H 27.696844 V 37.980107 37.84592 H 27.562659 27.428473 V 37.711735 37.57755 h 0.134186 0.134185 v 0.134185 0.134185 h 0.402557 0.402557 v -0.402558 -0.402554 h -0.536741 -0.536744 v -0.402559 -0.402556 h 0.670928 0.670929 v 0.134187 0.134184 h -0.536742 -0.536744 v 0.134185 0.134186 h 0.402557 0.402557 v 0.134186 0.134187 h 0.134184 0.134188 v 0.402554 0.402558 h -0.134188 -0.134184 v 0.134187 0.134184 z m 12.88182,0 H 40.578662 V 37.980107 37.84592 h -0.134184 -0.134187 v -0.670928 -0.670928 h 0.134187 0.134184 V 36.36988 36.235693 h 0.402559 0.402556 v 0.134187 0.134184 h 0.134184 0.134188 v 0.670928 0.670928 h -0.134188 -0.134184 v 0.134187 0.134184 z m 0,-0.268371 h 0.402556 v -0.402558 -0.402554 h -0.134186 -0.134186 v -0.134187 -0.134186 h 0.134186 0.134186 v -0.134186 -0.134185 h -0.402556 -0.402559 v 0.402557 0.402558 h 0.134187 0.134184 v 0.134183 0.134188 h -0.134184 -0.134187 v 0.134185 0.134185 z m 0,-0.536741 h -0.134188 v -0.134187 -0.134184 h 0.134188 0.134184 v 0.134184 0.134187 z m 1.610226,0.805112 H 42.188891 V 37.980107 37.84592 h -0.134187 -0.134185 v -0.670928 -0.670928 h 0.134185 0.134187 V 36.36988 36.235693 h 0.402556 0.402555 v 0.134187 0.134184 h 0.134188 0.134185 v 0.670928 0.670928 H 43.12819 42.994002 v 0.134187 0.134184 z m 0,-0.268371 h 0.402555 v -0.402558 -0.402554 h -0.134183 -0.134187 v -0.134187 -0.134186 h 0.134187 0.134183 v -0.134186 -0.134185 h -0.402555 -0.402556 v 0.402557 0.402558 h 0.134186 0.134184 v 0.134183 0.134188 h -0.134184 -0.134186 v 0.134185 0.134185 z m 0,-0.536741 h -0.134186 v -0.134187 -0.134184 h 0.134186 0.134185 v 0.134184 0.134187 z m 1.610226,0.805112 H 43.799118 V 37.980107 37.84592 H 43.66493 43.530748 v -0.670928 -0.670928 h 0.134182 0.134188 V 36.36988 36.235693 h 0.402555 0.402558 v 0.134187 0.134184 h 0.134186 0.134184 v 0.670928 0.670928 h -0.134184 -0.134186 v 0.134187 0.134184 z m 0,-0.268371 h 0.402558 v -0.402558 -0.402554 h -0.134186 -0.134184 v -0.134187 -0.134186 h 0.134184 0.134186 v -0.134186 -0.134185 h -0.402558 -0.402555 v 0.402557 0.402558 h 0.134185 0.134186 v 0.134183 0.134188 h -0.134186 -0.134185 v 0.134185 0.134185 z m 0,-0.536741 h -0.134184 v -0.134187 -0.134184 h 0.134184 0.134188 v 0.134184 0.134187 z m 28.984092,0.805112 H 72.783209 V 37.980107 37.84592 h -0.134185 -0.134187 v -0.670928 -0.670928 h 0.134187 0.134185 V 36.36988 36.235693 h 0.402556 0.402558 v 0.134187 0.134184 h 0.134187 0.134185 v 0.670928 0.670928 H 73.72251 73.588323 v 0.134187 0.134184 z m 0,-0.268371 h 0.402558 v -0.402558 -0.402554 h -0.134187 -0.134184 v -0.134187 -0.134186 h 0.134184 0.134187 v -0.134186 -0.134185 h -0.402558 -0.402556 v 0.402557 0.402558 h 0.134186 0.134186 v 0.134183 0.134188 h -0.134186 -0.134186 v 0.134185 0.134185 z m 0,-0.536741 h -0.134184 v -0.134187 -0.134184 h 0.134184 0.134187 v 0.134184 0.134187 z m 1.610229,0.805112 H 74.393436 V 37.980107 37.84592 H 74.259251 74.125065 V 37.711735 37.57755 h 0.134186 0.134185 v 0.134185 0.134185 h 0.402558 0.402557 v -0.26837 -0.268371 h -0.26837 -0.268375 v -0.134187 -0.134184 h 0.268375 0.26837 v -0.268373 -0.268371 h -0.402557 -0.402558 v 0.134185 0.134186 h -0.134185 -0.134186 v -0.134186 -0.134185 h 0.134186 0.134185 V 36.36988 36.235693 h 0.402558 0.402557 v 0.134187 0.134184 h 0.134185 0.134186 v 0.268371 0.268373 h -0.134186 -0.134185 v 0.134184 0.134187 h 0.134185 0.134186 v 0.268371 0.26837 h -0.134186 -0.134185 v 0.134187 0.134184 z m 1.610227,0 H 76.003664 V 37.980107 37.84592 h -0.134187 -0.134184 v -0.670928 -0.670928 h 0.134184 0.134187 V 36.36988 36.235693 h 0.402557 0.402556 v 0.134187 0.134184 h 0.134187 0.134187 v 0.670928 0.670928 h -0.134187 -0.134187 v 0.134187 0.134184 z m 0,-0.268371 h 0.402556 v -0.402558 -0.402554 h -0.134185 -0.134186 v -0.134187 -0.134186 h 0.134186 0.134185 v -0.134186 -0.134185 h -0.402556 -0.402557 v 0.402557 0.402558 h 0.134187 0.134185 v 0.134183 0.134188 h -0.134185 -0.134187 v 0.134185 0.134185 z m 0,-0.536741 h -0.134185 v -0.134187 -0.134184 h 0.134185 0.134185 v 0.134184 0.134187 z m 12.881824,0.805112 H 88.885483 V 37.980107 37.84592 h -0.134187 -0.134178 v -0.670928 -0.670928 h 0.134178 0.134187 V 36.36988 36.235693 h 0.402562 0.402554 v 0.134187 0.134184 h 0.134186 0.134187 v 0.670928 0.670928 h -0.134187 -0.134186 v 0.134187 0.134184 z m 0,-0.268371 h 0.402554 v -0.402558 -0.402554 h -0.134188 -0.134187 v -0.134187 -0.134186 h 0.134187 0.134188 v -0.134186 -0.134185 h -0.402554 -0.402562 v 0.402557 0.402558 h 0.134188 0.134187 v 0.134183 0.134188 h -0.134187 -0.134188 v 0.134185 0.134185 z m 0,-0.536741 h -0.134187 v -0.134187 -0.134184 h 0.134187 0.134179 v 0.134184 0.134187 z m 2.14697,0.805112 H 91.300827 V 37.84592 37.57755 h -0.53674 -0.536749 v -0.268371 -0.268371 h 0.134188 0.134187 v -0.134187 -0.134186 h 0.134187 0.134187 v -0.134186 -0.134185 h 0.134178 0.134188 V 36.36988 36.235693 h 0.268374 0.268375 v 0.939299 0.939299 z m -0.53675,-0.805112 h 0.402562 V 36.906621 36.504064 H 91.16664 91.032453 v 0.134185 0.134186 h -0.134188 -0.134178 v 0.134186 0.134187 H 90.6299 90.495713 v 0.134184 0.134187 z m 1.61023,0.805112 H 92.105943 V 37.980107 37.84592 H 91.971755 91.837568 V 37.711735 37.57755 h 0.134187 0.134188 v 0.134185 0.134185 h 0.402552 0.402562 v -0.402558 -0.402554 h -0.53675 -0.536739 v -0.402559 -0.402556 h 0.670927 0.670926 v 0.134187 0.134184 h -0.536739 -0.536739 v 0.134185 0.134186 h 0.402552 0.402562 v 0.134186 0.134187 h 0.134184 0.13418 v 0.402554 0.402558 h -0.13418 -0.134184 v 0.134187 0.134184 z"
       style="fill:#000000;stroke-width:0.0670928" />
    <text
       id="text991"
       y="115.38174"
       x="14.320755"
       style="font-size:9.67533px;line-height:1.25;font-family:'Courier 10 Pitch';-inkscape-font-specification:'Courier 10 Pitch';letter-spacing:0px;word-spacing:0px;stroke-width:0.241884"
       xml:space="preserve"><tspan
         style="stroke-width:0.241884"
         y="115.38174"
         x="14.320755"
         id="tspan989"
         sodipodi:role="line" /></text>
    <text
       id="text995"
       y="87.246742"
       x="49.085938"
       style="font-size:3.22512px;line-height:1.25;font-family:'Courier 10 Pitch';-inkscape-font-specification:'Courier 10 Pitch';letter-spacing:0px;word-spacing:0px;fill:#0000ff;stroke-width:0.241884"
       xml:space="preserve"><tspan
         style="font-size:3.22512px;text-align:end;text-anchor:end;fill:#0000ff;stroke-width:0.241884"
         y="87.246742"
         x="49.085938"
         id="tspan993"
         sodipodi:role="line" /><tspan
         id="tspan2168"
         style="font-size:3.22512px;text-align:end;text-anchor:end;fill:#0000ff;stroke-width:0.241884"
         y="91.278145"
         x="49.085938"
         sodipodi:role="line">Elytra Health</tspan><tspan
         id="tspan2116"
         style="font-size:3.22512px;text-align:end;text-anchor:end;fill:#0000ff;stroke-width:0.241884"
         y="95.30954"
         x="49.085938"
         sodipodi:role="line">Bluild Limit Mark</tspan><tspan
         id="tspan3578"
         style="font-size:3.22512px;text-align:end;text-anchor:end;fill:#0000ff;stroke-width:0.241884"
         y="99.340942"
         x="49.085938"
         sodipodi:role="line">Altitude</tspan><tspan
         id="tspan997"
         style="font-size:3.22512px;text-align:end;text-anchor:end;fill:#0000ff;stroke-width:0.241884"
         y="103.37234"
         x="49.085938"
         sodipodi:role="line">Ground Relative Altitude</tspan><tspan
         id="tspan3582"
         style="font-size:3.22512px;text-align:end;text-anchor:end;fill:#0000ff;stroke-width:0.241884"
         y="107.40374"
         x="49.085938"
         sodipodi:role="line">Ground Indicator</tspan><tspan
         id="tspan999"
         style="font-size:3.22512px;text-align:end;text-anchor:end;fill:#0000ff;stroke-width:0.241884"
         y="111.43514"
         x="49.085938"
         sodipodi:role="line">Block Zero Mark</tspan><tspan
         id="tspan1001"
         style="font-size:3.22512px;text-align:end;text-anchor:end;fill:#0000ff;stroke-width:0.241884"
         y="115.46655"
         x="49.085938"
         sodipodi:role="line">Void Damage Mark</tspan><tspan
         id="tspan1003"
         style="font-size:3.22512px;text-align:end;text-anchor:end;fill:#0000ff;stroke-width:0.241884"
         y="119.49794"
         x="49.085938"
         sodipodi:role="line">Height</tspan><tspan
         id="tspan1007"
         style="font-size:3.22512px;text-align:end;text-anchor:end;fill:#0000ff;stroke-width:0.241884"
         y="123.52934"
         x="49.085938"
         sodipodi:role="line" /><tspan
         id="tspan1009"
         style="font-size:3.22512px;text-align:end;text-anchor:end;fill:#0000ff;stroke-width:0.241884"
         y="127.56075"
         x="49.085938"
         sodipodi:role="line" /><tspan
         id="tspan1011"
         style="font-size:3.22512px;text-align:end;text-anchor:end;fill:#0000ff;stroke-width:0.241884"
         y="131.59215"
         x="49.085938"
         sodipodi:role="line" /></text>
    <path
       sodipodi:nodetypes="ccc"
       id="path1059"
       d="M 50.308123,94.352202 H 69.749279 L 91.771681,62.600125"
       style="fill:none;stroke:#0000ff;stroke-width:0.150844;stroke-linecap:butt;stroke-linejoin:miter;stroke-miterlimit:3.6;stroke-dasharray:none;stroke-opacity:1;marker-end:url(#Arrow2Lend)" />
    <path
       sodipodi:nodetypes="ccc"
       style="fill:none;stroke:#0000ff;stroke-width:0.150844;stroke-linecap:butt;stroke-linejoin:miter;stroke-miterlimit:3.6;stroke-dasharray:none;stroke-opacity:1;marker-end:url(#Arrow2Lend-3)"
       d="m 84.329394,32.376962 -0.993963,0.01107 -24.748599,36.837467"
       id="path1059-7" />
    <text
       xml:space="preserve"
       style="font-size:3.22511px;line-height:1.25;font-family:'Courier 10 Pitch';-inkscape-font-specification:'Courier 10 Pitch';text-align:start;letter-spacing:0px;word-spacing:0px;text-anchor:start;fill:#0000ff;stroke-width:0.241884"
       x="84.511841"
       y="9.1490383"
       id="text995-5"><tspan
         sodipodi:role="line"
         x="84.511841"
         y="9.1490383"
         style="font-size:3.22511px;text-align:start;text-anchor:start;fill:#0000ff;stroke-width:0.241884"
         id="tspan1003-2">Speed</tspan><tspan
         id="tspan3717"
         sodipodi:role="line"
         x="84.511841"
         y="13.180426"
         style="font-size:3.22511px;text-align:start;text-anchor:start;fill:#0000ff;stroke-width:0.241884">Heading Ordinals/Axes</tspan><tspan
         id="tspan3715"
         sodipodi:role="line"
         x="84.511841"
         y="17.211813"
         style="font-size:3.22511px;text-align:start;text-anchor:start;fill:#0000ff;stroke-width:0.241884">Location</tspan><tspan
         id="tspan3713"
         sodipodi:role="line"
         x="84.511841"
         y="21.2432"
         style="font-size:3.22511px;text-align:start;text-anchor:start;fill:#0000ff;stroke-width:0.241884">Heading</tspan><tspan
         id="tspan3711"
         sodipodi:role="line"
         x="84.511841"
         y="25.27459"
         style="font-size:3.22511px;text-align:start;text-anchor:start;fill:#0000ff;stroke-width:0.241884">Pitch Ladder</tspan><tspan
         sodipodi:role="line"
         x="84.511841"
         y="29.305977"
         style="font-size:3.22511px;text-align:start;text-anchor:start;fill:#0000ff;stroke-width:0.241884"
         id="tspan1005-7">Artificial Horizon</tspan><tspan
         sodipodi:role="line"
         x="84.511841"
         y="33.337364"
         style="font-size:3.22511px;text-align:start;text-anchor:start;fill:#0000ff;stroke-width:0.241884"
         id="tspan1007-0">Flight Path</tspan><tspan
         sodipodi:role="line"
         x="84.511841"
         y="37.368752"
         style="font-size:3.22511px;text-align:start;text-anchor:start;fill:#0000ff;stroke-width:0.241884"
         id="tspan1009-9" /><tspan
         sodipodi:role="line"
         x="84.511841"
         y="41.400139"
         style="font-size:3.22511px;text-align:start;text-anchor:start;fill:#0000ff;stroke-width:0.241884"
         id="tspan1011-3" /></text>
    <path
       id="path1059-7-6"
       d="M 50.378724,98.441568 H 70.373887 L 96.213601,62.10381"
       style="fill:none;stroke:#0000ff;stroke-width:0.150844;stroke-linecap:butt;stroke-linejoin:miter;stroke-miterlimit:3.6;stroke-dasharray:none;stroke-opacity:1;marker-end:url(#Arrow2Lend-3-6)"
       sodipodi:nodetypes="ccc" />
    <path
       id="path1059-7-1"
       d="M 50.308123,106.7083 H 72.77753 L 93.119111,76.213535"
       style="fill:none;stroke:#0000ff;stroke-width:0.150844;stroke-linecap:butt;stroke-linejoin:miter;stroke-miterlimit:3.6;stroke-dasharray:none;stroke-opacity:1;marker-end:url(#Arrow2Lend-3-2)"
       sodipodi:nodetypes="ccc" />
    <path
       id="path1059-7-9"
       d="M 50.308123,110.71423 H 72.581455 L 92.923033,79.525003"
       style="fill:none;stroke:#0000ff;stroke-width:0.150844;stroke-linecap:butt;stroke-linejoin:miter;stroke-miterlimit:3.6;stroke-dasharray:none;stroke-opacity:1;marker-end:url(#Arrow2Lend-3-8)"
       sodipodi:nodetypes="ccc" />
    <path
       id="path1059-7-3"
       d="M 50.308123,114.77077 H 72.68134 L 93.02292,83.951747"
       style="fill:none;stroke:#0000ff;stroke-width:0.150844;stroke-linecap:butt;stroke-linejoin:miter;stroke-miterlimit:3.6;stroke-dasharray:none;stroke-opacity:1;marker-end:url(#Arrow2Lend-3-20)"
       sodipodi:nodetypes="ccc" />
    <path
       id="path1059-7-92"
       d="M 50.308123,118.67497 H 75.722325 L 96.063911,87.485723"
       style="fill:none;stroke:#0000ff;stroke-width:0.150844;stroke-linecap:butt;stroke-linejoin:miter;stroke-miterlimit:3.6;stroke-dasharray:none;stroke-opacity:1;marker-end:url(#Arrow2Lend-3-7)"
       sodipodi:nodetypes="ccc" />
    <path
       sodipodi:nodetypes="ccc"
       style="fill:none;stroke:#0000ff;stroke-width:0.150844;stroke-linecap:butt;stroke-linejoin:miter;stroke-miterlimit:3.6;stroke-dasharray:none;stroke-opacity:1;marker-end:url(#Arrow2Lend-2)"
       d="m 50.308123,90.528561 h 2.901329 L 55.703508,86.8682"
       id="path1059-9" />
    <path
       sodipodi:nodetypes="ccc"
       style="fill:none;stroke:#0000ff;stroke-width:0.150844;stroke-linecap:butt;stroke-linejoin:miter;stroke-miterlimit:3.6;stroke-dasharray:none;stroke-opacity:1;marker-end:url(#Arrow2Lend-7)"
       d="M 50.308123,102.32965 H 70.392411 L 92.414807,71.985601"
       id="path1059-6" />
    <path
       id="path1059-7-31"
       d="m 84.329394,28.418885 -1.86401,-0.01083 -23.363879,35.982501"
       style="fill:none;stroke:#0000ff;stroke-width:0.150844;stroke-linecap:butt;stroke-linejoin:miter;stroke-miterlimit:3.6;stroke-dasharray:none;stroke-opacity:1;marker-end:url(#Arrow2Lend-3-1)"
       sodipodi:nodetypes="ccc" />
    <path
       sodipodi:nodetypes="ccc"
       style="fill:none;stroke:#0000ff;stroke-width:0.150844;stroke-linecap:butt;stroke-linejoin:miter;stroke-miterlimit:3.6;stroke-dasharray:none;stroke-opacity:1;marker-end:url(#Arrow2Lend-3-1-9)"
       d="M 84.329394,24.638754 76.020506,24.508312 65.284236,42.414794"
       id="path1059-7-31-7" />
    <path
       id="path1059-7-31-7-5"
       d="M 84.329394,20.381233 68.212476,20.368571 60.384581,34.075707"
       style="fill:none;stroke:#0000ff;stroke-width:0.150844;stroke-linecap:butt;stroke-linejoin:miter;stroke-miterlimit:3.6;stroke-dasharray:none;stroke-opacity:1;marker-end:url(#Arrow2Lend-3-1-9-8)"
       sodipodi:nodetypes="ccc" />
    <path
       sodipodi:nodetypes="ccc"
       style="fill:none;stroke:#0000ff;stroke-width:0.150844;stroke-linecap:butt;stroke-linejoin:miter;stroke-miterlimit:3.6;stroke-dasharray:none;stroke-opacity:1;marker-end:url(#Arrow2Lend-3-1-9-8-0)"
       d="m 84.329394,12.312019 -25.55641,-0.0055 -13.45986,27.05508"
       id="path1059-7-31-7-5-6" />
    <path
       id="path1059-7-31-7-5-6-6"
       d="M 84.329394,16.547596 59.844126,16.544395 27.76065,81.502804"
       style="fill:none;stroke:#0000ff;stroke-width:0.150844;stroke-linecap:butt;stroke-linejoin:miter;stroke-miterlimit:3.6;stroke-dasharray:none;stroke-opacity:1;marker-end:url(#Arrow2Lend-3-1-9-8-0-1)"
       sodipodi:nodetypes="ccc" />
    <path
       id="path1059-7-31-7-5-6-0"
       d="M 84.329394,8.2862852 38.750202,8.1753302 16.341369,58.871066"
       style="fill:none;stroke:#0000ff;stroke-width:0.150844;stroke-linecap:butt;stroke-linejoin:miter;stroke-miterlimit:3.6;stroke-dasharray:none;stroke-opacity:1;marker-end:url(#Arrow2Lend-3-1-9-8-0-3)"
       sodipodi:nodetypes="ccc" />
  </g>
</svg>
